<svg t="1757921730551" class="icon" viewBox="0 0 1024 1024" version="1.1" xmlns="http://www.w3.org/2000/svg" p-id="11337" width="32" height="32"><path d="M858.7 113.5H595.4c-34.6 0-62.7 28.1-62.7 62.7v263.3c0 34.6 28.1 62.7 62.7 62.7h263.3c34.6 0 62.7-26.9 62.7-59.9v-48c0-17.3-14-31.4-31.4-31.4-17.3 0-31.4 14-31.4 31.4V439.6H595.4V176.3h263.3V204.4c0 17.3 14 31.4 31.4 31.4 17.3 0 31.4-14 31.4-31.4v-31.7c0-32.6-28.2-59.2-62.8-59.2zM435 113.5H171.6c-34.6 0-62.7 28.1-62.7 62.7v263.3c0 34.6 28.1 62.7 62.7 62.7H435c34.6 0 62.7-28.1 62.7-62.7V176.3c0-34.6-28.1-62.8-62.7-62.8z m0 326.1H171.6V176.3H435v263.3zM431.8 533.9H168.5c-34.6 0-62.7 28.1-62.7 62.7V860c0 34.6 28.1 62.7 62.7 62.7h263.3c34.6 0 62.7-28.1 62.7-62.7V596.7c0.1-34.6-28.1-62.8-62.7-62.8z m0 326.1H168.5V596.7h263.3V860zM855.6 533.9H592.2c-34.6 0-62.7 28.1-62.7 62.7V860c0 34.6 28.1 62.7 62.7 62.7h263.3c34.6 0 62.7-28.1 62.7-62.7V596.7c0.1-34.6-28-62.8-62.6-62.8z m0 326.1H592.2V596.7h263.3V860z" fill="#000000" p-id="11338"></path><path d="M890.1 298.6m-31.4 0a31.4 31.4 0 1 0 62.8 0 31.4 31.4 0 1 0-62.8 0Z" fill="#000000" p-id="11339"></path></svg>