<svg t="1757702012885" class="icon" viewBox="0 0 1024 1024" version="1.1" xmlns="http://www.w3.org/2000/svg" p-id="10286" width="256" height="256"><path d="M783.424467 966.764h18.323844v11.336146h-18.323844z m5.289347 5.668073c0 3.209311-2.452845 5.668073-5.665114 5.668073-3.215229 0-5.670046-2.45679-5.670046-5.668073 0-3.215229 2.452845-5.670046 5.670046-5.670045 3.211284 0.001973 5.665114 2.648125 5.665114 5.670045z m18.51518 0c0 3.209311-2.45679 5.668073-5.670046 5.668073-3.213256 0-5.668073-2.45679-5.668073-5.668073 0-3.215229 2.452845-5.670046 5.668073-5.670045 3.213256 0.001973 5.670046 2.648125 5.670046 5.670045z m-549.000278-5.668073h496.291241v11.336146H258.228716z m501.769951 5.668073c0 3.209311-2.454817 5.668073-5.668073 5.668073-3.21227 0-5.667087-2.45679-5.667087-5.668073 0-3.215229 2.452845-5.670046 5.667087-5.670045 3.211284 0.001973 5.668073 2.648125 5.668073 5.670045z m-496.103851 0c0 3.209311-2.454817 5.668073-5.668073 5.668073-3.210297 0-5.669059-2.45679-5.669059-5.668073 0-3.215229 2.455803-5.670046 5.669059-5.670045 3.022907 0.001973 5.668073 2.648125 5.668073 5.670045z m201.954819 23.423828a8.879357 8.879357 0 1 1 17.758713 0 8.879357 8.879357 0 1 1-17.758713 0z m-112.406758-6.800307h95.405497v11.333188h-95.405497z m151.324831 0h101.451311v11.333188H504.767708z m-146.032525 5.665114c0 3.213256-2.45679 5.668073-5.668074 5.668074s-5.670046-2.452845-5.670045-5.668074c0-3.209311 2.45679-5.667087 5.670045-5.667087 3.211284 0.001973 5.668073 2.645167 5.668074 5.667087z m95.970627 0c0 3.213256-2.45679 5.668073-5.671032 5.668074-3.210297 0-5.669059-2.452845-5.669059-5.668074 0-3.209311 2.45679-5.667087 5.670046-5.667087 3.023893 0.001973 5.670046 2.645167 5.670045 5.667087z m55.352231 0c0 3.213256-2.455803 5.668073-5.668073 5.668074-3.211284 0-5.670046-2.452845-5.670046-5.668074 0-3.209311 2.45679-5.667087 5.670046-5.667087 3.023893 0.001973 5.668073 2.645167 5.668073 5.667087z m101.637715 0c0 3.213256-2.454817 5.668073-5.667087 5.668074-3.211284 0-5.671032-2.452845-5.671032-5.668074 0-3.209311 2.457776-5.667087 5.671032-5.667087 3.21227 0.001973 5.667087 2.645167 5.667087 5.667087z m-6.798334 17.947091h92.379631v11.336146H604.896435z m128.653524 0h42.31872v11.336146h-42.31872z m-122.987424 5.668073c0 3.213256-2.455803 5.668073-5.668073 5.668073-3.213256 0-5.670046-2.452845-5.670046-5.668073 0-3.209311 2.455803-5.670046 5.670046-5.670046 3.02192 0.001973 5.668073 2.648125 5.668073 5.671032z m171.539348 0c0 3.213256-2.454817 5.668073-5.670045 5.668073-3.211284 0-5.668073-2.452845-5.668074-5.668073 0-3.209311 2.455803-5.670046 5.668074-5.670046 3.213256 0.001973 5.670046 2.648125 5.670045 5.671032z m-74.622891 5.668073a9.988906 9.988906 0 0 0-1.702295-5.668073c0-5.476737 4.536826-10.011591 10.013563-10.011591s10.011591 4.534853 10.01159 10.011591a9.979044 9.979044 0 0 0-1.702296 5.668073h12.470353a19.167102 19.167102 0 0 1 0.566117-4.722244c0-11.522551-9.44646-20.969011-20.971969-20.96901-11.522551 0-20.967038 9.448432-20.967038 20.968024 0 1.513919 0.187391 3.215229 0.568089 4.72323h11.713886z m-116.753234-5.668073c0 3.213256-2.452845 5.668073-5.669059 5.668073h-9.44646c-3.211284 0-5.668073-2.452845-5.668073-5.668073 0-3.209311 2.454817-5.670046 5.668073-5.670046h9.44646c3.023893 0.001973 5.669059 2.648125 5.669059 5.671032zM232.535489 349.18763c-10.197995 10.578694-27.016796 10.770029-37.592532 0.565131l-17.380973-16.81387c-10.57968-10.200954-10.770029-27.01581-0.567103-37.594504 10.199967-10.581653 27.016796-10.768057 37.591545-0.567103l17.38196 16.81387c10.580666 10.392289 10.770029 27.20616 0.567103 37.596476z m235.960299-76.134837c0 0.754494-1.13322 1.51096-2.454817 1.51096h-25.50485c-1.32357 0-2.453831-0.756466-2.453831-1.51096v-3.96775c0-0.754494 1.132234-1.51096 2.454817-1.51096H466.039984c1.32357 0 2.454817 0.756466 2.454817 1.51096v3.96775z m-17.003234 13.225833c-0.756466 0-1.508988-1.135193-1.508987-2.458762v-25.50485c0-1.319624 0.754494-2.454817 1.508987-2.454817h3.96775c0.758439 0 1.51096 1.135193 1.51096 2.455803v25.503864c0 1.32357-0.754494 2.457776-1.51096 2.457776h-3.96775z m155.292582-43.831653c-13.03647 0-23.427773 10.578694-23.427773 23.425801 0 12.848093 10.580666 23.427773 23.427773 23.427772 13.035483 0 23.4258-10.57968 23.4258-23.427772 0-12.847107-10.57968-23.4258-23.4258-23.425801z m-0.378727 34.571598c-6.045813 0-10.766084-4.911607-10.766084-10.768057s4.911607-10.770029 10.766084-10.77003c5.857436 0 10.768057 4.913579 10.768057 10.77003 0 5.857436-4.911607 10.768057-10.768057 10.768057zM488.897695 454.225992a15.114533 15.114533 0 1 1 30.22808 0 15.114533 15.114533 0 1 1-30.229066 0zM278.065492 556.996927a9.067734 9.067734 0 1 1 18.136454 0 9.067734 9.067734 0 1 1-18.136454 0zM878.073498 801.459828l-43.452926-39.86193c4.724216-22.103217 7.18002-45.151277 7.180019-68.57905 0-182.492823-147.924185-330.606371-330.610316-330.606371-45.907744 0-89.546088 9.44646-129.409991 26.258358l-38.35097-39.861931c-3.964791-4.156127-10.768057-4.343517-14.92517-0.18739-4.152182 3.965777-4.343517 10.767071-0.188377 14.923197l33.439363 34.572583c7.556773 10.390317 6.798335 24.74937-2.268412 34.383221-10.199967 10.770029-27.203201 11.146783-37.971258 0.756466l-6.61193-6.424539-38.542306-37.405141c-10.389331-10.011591-26.639056-9.632864-36.649661 0.566117-10.012577 10.389331-9.633851 26.639056 0.566117 36.651633l43.641304 42.316748a26.152827 26.152827 0 0 0-0.756467 34.38322c-9.823214 10.770029-26.448707 11.524523-37.029373 1.700323l-4.157113-3.778386-0.188377 0.18739-37.594504-34.38322c-16.246767-14.735807-41.183527-13.600614-56.108697 2.455803-14.735807 16.247753-13.600614 41.184514 2.455803 56.108698l52.519674 47.986793c-14.360039 37.029373-22.103217 77.076722-22.103217 119.02066 0 109.193502 52.897414 205.922568 134.320612 266.18542h392.3861a328.9238 328.9238 0 0 1 49.496767-44.961914l17.379987 15.871c16.246767 14.733834 41.183527 13.600614 56.108698-2.45679s13.602587-41.186486-2.455804-56.106725l-24.935774-22.862642v-0.189363l-35.515454-32.493534c-7.55776-6.798335-8.126835-18.516166-1.135193-26.071953 6.987698-7.556773 18.514193-8.121904 26.068994-1.132234l26.82842 24.560007v-0.19035l26.258357 23.992904c9.825186 9.069706 25.315487 8.314226 34.383221-1.508988 8.508521-9.44646 7.941417-24.753315-2.072146-33.81809zM263.894816 684.89793c0 0.751535-1.135193 1.508001-2.455803 1.508001h-9.257097v9.257097c0 1.321597-0.758439 2.455803-1.51096 2.455804h-3.969722c-0.754494 0-1.51096-1.136179-1.510961-2.455804v-9.257097h-9.257096c-1.321597 0-2.454817-0.759425-2.454818-1.508001v-3.970709c0-0.754494 1.134206-1.51096 2.454818-1.51096h9.257096v-9.25611c0-1.32357 0.759425-2.457776 1.510961-2.457776h3.969722c0.754494 0 1.51096 1.136179 1.51096 2.457776v9.25611h9.257097c1.321597 0 2.455803 0.758439 2.455803 1.51096v3.970709z m23.051019-106.363903c-11.713886 0-21.349709-9.44646-21.349709-21.347737s9.44646-21.346751 21.349709-21.346751c11.709941 0 21.346751 9.445474 21.346751 21.346751s-9.636809 21.347737-21.346751 21.347737zM504.011242 481.241802c-15.300937 0-27.579955-12.279017-27.579955-27.580941s12.279017-27.580941 27.579955-27.580941c15.303896 0 27.582913 12.279017 27.582913 27.580941s-12.279017 27.580941-27.582913 27.580941z m206.113904 20.402894c0 0.754494-1.136179 1.51096-2.455803 1.51096h-9.258083v9.25611c0 1.32357-0.756466 2.455803-1.508988 2.455804h-3.969722c-0.756466 0-1.51096-1.134206-1.510961-2.455804v-9.25611h-9.257096c-1.32357 0-2.455803-0.756466-2.455804-1.51096v-3.777401c0-0.757453 1.134206-1.513919 2.455804-1.513919h9.257096v-9.255124c0-1.32357 0.756466-2.454817 1.510961-2.454817h3.969722c0.754494 0 1.508988 1.13322 1.508988 2.454817v9.255124h9.257096c1.321597 0 2.45679 0.756466 2.45679 1.512933v3.778387zM562.100362 827.724104c0-43.19847 35.016403-78.211914 78.212901-78.211915 1.428114 0 2.848337 0.039451 4.256726 0.121311V621.041124l-85.01518-85.015181H420.508994c-14.546444 0-26.447721 11.904236-26.44772 26.447721v259.764826c0 14.544471 11.901277 26.447721 26.44772 26.44772h144.455486a78.225722 78.225722 0 0 0-2.864118-20.962106zM442.61517 632.753038h109.193502a5.886038 5.886038 0 0 0 5.857436 5.858422 5.886038 5.886038 0 0 0-5.857436 5.855464H442.616156a5.886038 5.886038 0 0 0-5.85645-5.854478 5.884066 5.884066 0 0 0 5.85645-5.858422z m0 51.200049h158.879632a5.886038 5.886038 0 0 0 5.857437 5.854477 5.888011 5.888011 0 0 0-5.857437 5.855464H442.616156a5.886038 5.886038 0 0 0-5.85645-5.855464 5.882093 5.882093 0 0 0 5.85645-5.854477z m-5.85645 57.052554a5.882093 5.882093 0 0 0 5.85645-5.857436h158.879632a5.886038 5.886038 0 0 0 5.857437 5.857436 5.886038 5.886038 0 0 0-5.857437 5.852505H442.616156a5.88012 5.88012 0 0 0-5.85645-5.852505z m320.073045 173.387612l-44.506259-43.703439c19.529062-32.49452 14.971524-75.148571-13.254434-102.844904-32.989626-32.370251-86.263794-31.870214-118.634044 1.121385-32.372223 32.995544-31.870214 86.265766 1.121385 118.639961 28.223 27.694361 70.956938 31.446119 103.072732 11.300641l43.956909 43.134362s8.545012-7.323028 16.215206-15.141162c7.675125-7.81912 12.028505-12.505858 12.028505-12.505858z m-70.751795-41.762466c-24.886461 25.3648-65.502885 25.753389-90.677335 0.858052-25.360855-24.886461-25.749444-65.503871-0.858052-90.677336s65.504858-25.746485 90.677336-0.858052c25.362828 24.701043 25.744513 65.317467 0.858051 90.677336z m-84.585168-188.6777H442.616156a5.882093 5.882093 0 0 1-5.85645 5.854477 5.886038 5.886038 0 0 1 5.85645 5.855464h158.879633a5.888011 5.888011 0 0 1 5.857436-5.855464 5.886038 5.886038 0 0 1-5.857436-5.854477zM442.616156 644.28052h109.193502a5.888011 5.888011 0 0 1 5.857437-5.861382 5.884066 5.884066 0 0 1-5.857437-5.852505H442.616156a5.882093 5.882093 0 0 1-5.85645 5.852505c0 3.402619 2.641222 5.861381 5.85645 5.861382z m158.879633 91.057048H442.616156a5.886038 5.886038 0 0 1-5.85645 5.854478 5.884066 5.884066 0 0 1 5.85645 5.855463h158.879633a5.886038 5.886038 0 0 1 5.857436-5.855463 5.888011 5.888011 0 0 1-5.857436-5.854478z m-15.490301-114.296444h58.56746L559.557767 536.025943v58.565487c0 14.54743 11.899305 26.449693 26.447721 26.449694z" p-id="10287" fill="#1296db"></path></svg>