<svg t="1758042487591" class="icon" viewBox="0 0 1028 1024" version="1.1" xmlns="http://www.w3.org/2000/svg" p-id="6732" width="32" height="32"><path d="M475.372557 1023.762363H33.485232c-18.30346 0-33.141738-14.837198-33.141738-33.141739V548.7333c0-18.30346 14.837198-33.141738 33.141738-33.141739h441.887325c18.30346 0 33.141738 14.837198 33.141738 33.141739v441.888405c-0.00108 18.30346-14.838278 33.140658-33.141738 33.140658zM66.62697 957.479966H442.231899V581.873958H66.62697v375.606008zM972.495392 802.81816H574.797772c-18.30346 0-33.141738-14.837198-33.141738-33.141738s14.837198-33.141738 33.141738-33.141738h397.698701c18.30346 0 33.141738 14.837198 33.141738 33.141738s-14.838278 33.141738-33.142819 33.141738zM972.495392 603.96989H574.797772c-18.30346 0-33.141738-14.837198-33.141738-33.141738s14.837198-33.141738 33.141738-33.141738h397.698701c18.30346 0 33.141738 14.837198 33.141738 33.141738s-14.838278 33.141738-33.142819 33.141738zM972.495392 1001.667511H574.797772c-18.30346 0-33.141738-14.837198-33.141738-33.141739s14.837198-33.141738 33.141738-33.141738h397.698701c18.30346 0 33.141738 14.837198 33.141738 33.141738s-14.838278 33.141738-33.142819 33.141739z" p-id="6733" fill="#000000"></path><path d="M457.08746 84.752203l-335.224979 148.652827 335.224979 116.478919 327.606548-116.478919z" fill="#000000" p-id="6734"></path><path d="M519.561181 436.454076c-3.548354 0-7.096709-0.569249-10.506801-1.709907l-486.07595-162.474667a33.140658 33.140658 0 0 1-22.607932-30.096743 33.139578 33.139578 0 0 1 20.110582-31.819611l486.07595-207.352439a33.133097 33.133097 0 0 1 26.262143 0.110177l197.813468 86.346532c16.775021 7.322464 24.437738 26.857316 17.116355 43.632337-7.323544 16.775021-26.858397 24.437738-43.633418 17.115275L519.409958 69.581232 126.769688 237.074363 519.438042 368.326751 903.150717 237.085165l-50.43524-22.01492c-16.775021-7.322464-24.437738-26.857316-17.115274-43.632338 7.321384-16.776101 26.857316-24.439899 43.632337-17.115274l128.614616 56.141772a33.141738 33.141738 0 0 1-2.532996 61.731646L530.287257 434.670717a33.165502 33.165502 0 0 1-10.726076 1.783359z" p-id="6735" fill="#000000"></path></svg>